<svg id="Layer_2" data-name="Layer 2" xmlns="http://www.w3.org/2000/svg" viewBox="0 0 281.98 249.24"><defs><style>.cls-1{fill:#fff;}</style></defs><title>Logo-white</title><path class="cls-1" d="M101.18,125.74h14.34q31.55,0,63.09-.06c32.17,0,58,13,78.37,37.58,17.56,21.19,25.48,45.52,25.32,72.85-.26,43.6-.2,87.19-.27,130.78v7.36H251.5c0-16.41,0-32.2,0-48-.09-33.11.4-66.22-.52-99.3-.7-25.21-13.2-44.28-34.79-57.43C202.62,161.27,188,157.65,172.1,158c-19.78.42-39.59-.08-59.38,0-4,0-5.85-1-6.47-5.24C105,144.08,103.05,135.47,101.18,125.74Z" transform="translate(-101.18 -125.34)"/><path class="cls-1" d="M232.44,374H202.92V366.9q0-60.76,0-121.54A138.42,138.42,0,0,0,202,230c-1.38-12.36-12.75-23.38-25.18-23.7-15.87-.41-31.75-.12-47.63-.12-11,0-12.57-1.21-14.79-12-1.11-5.43-2.09-10.89-3.06-16.35a24.26,24.26,0,0,1,0-3.71c2.29,0,4.51,0,6.72,0,22.47.38,45,.51,67.41,1.27,10.2.34,19.18,5.12,26.68,11.65,14.73,12.82,22,29.06,21.73,48.93-.63,44-.73,88-1.06,132C232.74,369.77,232.57,371.57,232.44,374Z" transform="translate(-101.18 -125.34)"/><path class="cls-1" d="M383,125.4c.92,9.9-2.17,18.78-5.78,27.47-.44,1-3,1.58-4.67,1.67-19.94,1-39.89,1.8-59.82,3-9.63.57-19.22,1.86-28.82,2.82-4.64.46-8.26-.9-11.17-4.9a118.33,118.33,0,0,0-10.12-11.61c-4-4.21-3.51-7.65,1.9-9.42,12.45-4.08,24.62-9.17,38.15-9.06C329.2,125.55,355.74,125.4,383,125.4Z" transform="translate(-101.18 -125.34)"/><path class="cls-1" d="M375.26,174.39c-2.11,9.2-3.61,17.38-6.07,25.26-.6,1.92-4.31,4-6.66,4.06-10.48.42-21,.06-31.46.16-9.06.08-18.12.34-27.17.69-1.76.06-3.5.89-5.35,1.39-2.81-7.35-6.05-15.2-8.78-23.23-1.53-4.5,2.19-6.18,5.52-7.35a20.65,20.65,0,0,1,6.7-.94C325.63,174.36,349.27,174.39,375.26,174.39Z" transform="translate(-101.18 -125.34)"/><path class="cls-1" d="M162.28,373.75h-21.2V357.22c4.23,0,8.47.08,12.69-.06a25.79,25.79,0,0,0,6.25-.92c4.13-1.19,7.32-3.6,8.69-7.9,2.55-8-2-15-10.74-16-5.58-.64-11.26-.37-16.89-.51V315.25c3.59,0,7.19,0,10.78,0a15.63,15.63,0,0,0,8.8-2.57c4.1-2.86,5.31-6.94,4.61-11.69-.63-4.24-3.57-6.35-7.38-7.51a12.8,12.8,0,0,0-3.09-.65c-4.57-.2-9.15-.3-13.72-.43V275.83h19.51c.75.14,1.5.32,2.27.41,5.8.66,11.39,2,16.39,5.17a19.83,19.83,0,0,1,9,21.39c-1.83,8.7-7.72,13.78-15.53,17.08-.88.37-1.78.68-3,1.15,1.08.24,1.76.42,2.45.55,15.05,2.81,23.22,15.38,19.56,30.24C189,362.93,181.22,369,170.72,372,168,372.8,165.1,373.18,162.28,373.75Z" transform="translate(-101.18 -125.34)"/><path class="cls-1" d="M317.71,374.59c3.13-.64,6.32-1.06,9.37-1.94,11.67-3.38,20.29-10.08,23.33-22.42,4.07-16.5-5-30.47-21.72-33.59-.76-.14-1.52-.33-2.72-.6,1.38-.53,2.38-.87,3.35-1.28,8.68-3.67,15.22-9.31,17.26-19a22,22,0,0,0-10-23.75c-5.55-3.54-11.76-5-18.2-5.75-.85-.1-1.68-.3-2.52-.46H351.6V374.59Z" transform="translate(-101.18 -125.34)"/><path class="cls-1" d="M294.16,328c6.26.15,12.57-.15,18.76.56,9.74,1.11,14.76,9,11.93,17.83-1.52,4.77-5.07,7.44-9.65,8.77a29,29,0,0,1-6.94,1c-4.69.16-9.4.06-14.1.07Z" transform="translate(-101.18 -125.34)"/><path class="cls-1" d="M294.16,284.19c5.08.15,10.16.26,15.24.48a14.19,14.19,0,0,1,3.43.73c4.24,1.28,7.5,3.62,8.19,8.34.79,5.27-.55,9.8-5.11,13a17.37,17.37,0,0,1-9.77,2.85c-4,.09-8,0-12,.05Z" transform="translate(-101.18 -125.34)"/></svg>