<svg id="Layer_1" data-name="Layer 1" xmlns="http://www.w3.org/2000/svg" viewBox="0 0 281.98 249.24"><defs><style>.cls-1{fill:#2f2a85;}.cls-2{fill:#cb953c;}</style></defs><title>Logo</title><path class="cls-1" d="M96.58,132h14.34q31.54,0,63.1-.06c32.16,0,58,13,78.36,37.58,17.56,21.19,25.48,45.52,25.32,72.85-.26,43.59-.19,87.19-.26,130.78,0,2.23,0,4.47,0,7.36H246.9c0-16.41,0-32.2,0-48-.08-33.11.4-66.22-.52-99.3-.7-25.21-13.2-44.28-34.79-57.43-13.55-8.26-28.15-11.89-44.08-11.54-19.78.42-39.58-.08-59.38,0-4,0-5.84-1-6.47-5.24C100.38,150.33,98.45,141.72,96.58,132Z" transform="translate(-96.58 -131.59)"/><path class="cls-2" d="M227.84,380.28H198.32v-7.13q0-60.76,0-121.54a140.89,140.89,0,0,0-1-15.36c-1.38-12.36-12.74-23.38-25.18-23.7-15.87-.41-31.75-.12-47.63-.12-11,0-12.57-1.21-14.78-12-1.12-5.43-2.1-10.89-3.07-16.35a25.91,25.91,0,0,1,0-3.71c2.28,0,4.5,0,6.71,0,22.48.38,45,.51,67.41,1.27,10.2.34,19.18,5.12,26.68,11.65,14.73,12.82,22,29.06,21.74,48.93-.63,44-.74,88-1.07,132C228.14,376,228,377.82,227.84,380.28Z" transform="translate(-96.58 -131.59)"/><path class="cls-2" d="M378.4,131.65c.93,9.9-2.17,18.78-5.78,27.47-.43,1-3,1.58-4.67,1.67-19.93,1-39.89,1.8-59.82,3-9.63.57-19.21,1.86-28.82,2.82-4.64.46-8.26-.9-11.17-4.9A118.33,118.33,0,0,0,258,150.08c-4-4.21-3.5-7.66,1.9-9.42,12.45-4.08,24.62-9.17,38.15-9.07C324.61,131.79,351.14,131.65,378.4,131.65Z" transform="translate(-96.58 -131.59)"/><path class="cls-1" d="M370.66,180.64c-2.11,9.2-3.61,17.38-6.07,25.26-.6,1.92-4.31,4-6.66,4.06-10.47.42-21,.06-31.46.16-9.06.08-18.11.34-27.16.69-1.77.06-3.51.89-5.36,1.39-2.81-7.35-6.05-15.2-8.78-23.23-1.53-4.5,2.19-6.18,5.52-7.35a20.93,20.93,0,0,1,6.7-1C321,180.61,344.68,180.64,370.66,180.64Z" transform="translate(-96.58 -131.59)"/><path class="cls-1" d="M157.68,380h-21.2V363.47c4.23,0,8.47.08,12.7-.06a25.71,25.71,0,0,0,6.24-.92c4.13-1.19,7.32-3.6,8.69-7.9,2.55-8-2-15-10.74-16-5.57-.64-11.25-.37-16.89-.51V321.5c3.59,0,7.19,0,10.78,0a15.61,15.61,0,0,0,8.8-2.57c4.11-2.86,5.31-6.94,4.61-11.69-.63-4.24-3.56-6.35-7.38-7.51a12.8,12.8,0,0,0-3.09-.65c-4.57-.2-9.15-.3-13.72-.43V282.08H156c.75.14,1.51.32,2.27.41,5.8.66,11.39,2,16.39,5.17a19.84,19.84,0,0,1,9,21.39c-1.83,8.7-7.73,13.78-15.54,17.08-.88.37-1.78.68-3,1.15,1.09.24,1.77.42,2.46.55,15,2.8,23.22,15.38,19.55,30.24-2.74,11.11-10.5,17.14-21,20.18C163.37,379.05,160.5,379.43,157.68,380Z" transform="translate(-96.58 -131.59)"/><path class="cls-2" d="M313.11,380.84c3.13-.64,6.32-1.06,9.37-1.94,11.67-3.38,20.29-10.08,23.33-22.42,4.08-16.5-5-30.47-21.71-33.59-.77-.14-1.52-.33-2.73-.6,1.38-.53,2.38-.87,3.35-1.28,8.68-3.67,15.23-9.31,17.26-19a22,22,0,0,0-10-23.75c-5.54-3.54-11.76-5-18.2-5.75-.85-.1-1.68-.3-2.52-.46H347V380.84Z" transform="translate(-96.58 -131.59)"/><path class="cls-2" d="M289.56,334.23c6.26.15,12.57-.15,18.77.56,9.74,1.11,14.75,9,11.92,17.83-1.52,4.77-5.06,7.44-9.65,8.77a29,29,0,0,1-6.94,1c-4.69.16-9.4.06-14.1.07Z" transform="translate(-96.58 -131.59)"/><path class="cls-2" d="M289.56,290.44c5.08.15,10.16.26,15.24.48a14.19,14.19,0,0,1,3.43.73c4.24,1.28,7.5,3.62,8.2,8.34.78,5.27-.56,9.8-5.12,13a17.31,17.31,0,0,1-9.77,2.86c-4,.09-8,0-12,.05Z" transform="translate(-96.58 -131.59)"/></svg>